<?xml version="1.0" standalone="no"?>
<svg viewBox="0 0 200 200" xmlns="http://www.w3.org/2000/svg">
  <path fill="#A3DDCB" d="M49.6,-77.7C63.4,-68.3,73.2,-53.1,77.7,-37.2C82.2,-21.4,81.4,-4.9,79.2,11.5C77,27.8,73.2,44,64.2,57.1C55.1,70.2,40.8,80.1,25.3,83.5C9.7,86.9,-7,83.8,-19.3,75.6C-31.6,67.5,-39.5,54.3,-51.6,43.1C-63.6,32,-79.8,22.9,-86.3,9.5C-92.9,-4,-89.7,-21.7,-82.4,-37.6C-75.2,-53.5,-63.8,-67.5,-49.4,-76.7C-34.9,-85.9,-17.5,-90.3,0.2,-90.6C17.9,-90.9,35.8,-87.2,49.6,-77.7Z" transform="translate(100 100)" />
</svg>
