<?xml version="1.0" standalone="no"?>
<svg viewBox="0 0 200 200" xmlns="http://www.w3.org/2000/svg">
  <path fill="#03506F" d="M44.9,-71.3C58.3,-61.2,69.5,-49,78,-34.5C86.5,-19.9,92.2,-2.9,86.9,10.3C81.6,23.5,65.3,33,52.8,43.6C40.3,54.2,31.5,65.9,19.1,73.2C6.7,80.5,-9.3,83.4,-25,80.8C-40.7,78.2,-56,70,-63.4,57.3C-70.9,44.5,-70.5,27.3,-72.1,10.9C-73.6,-5.5,-77,-21.1,-72.1,-33.3C-67.1,-45.5,-53.9,-54.3,-40.4,-64.4C-27,-74.6,-13.5,-86,1.1,-87.7C15.7,-89.4,31.4,-81.4,44.9,-71.3Z" transform="translate(100 100)" />
</svg>
